<?xml version="1.0" encoding="utf-8"?>
<svg version="1.1" xmlns:xlink="http://www.w3.org/1999/xlink" width="22px" height="23px" xmlns="http://www.w3.org/2000/svg">
  <g transform="matrix(1 0 0 1 -1547 -17 )">
    <path d="M 21.9453125 17.5719401041667  C 21.9817708333333 18.0760633680556  22 18.5926649305556  22 19.1217447916667  C 22 20.3196614583333  21.6197916666667 21.2655164930556  20.859375 21.9593098958333  C 20.0989583333333 22.6531032986111  19.0885416666667 23  17.828125 23  L 4.171875 23  C 2.91145833333333 23  1.90104166666667 22.6531032986111  1.140625 21.9593098958333  C 0.380208333333333 21.2655164930556  0 20.3196614583333  0 19.1217447916667  C 0 18.5926649305556  0.0182291666666667 18.0760633680556  0.0546875 17.5719401041667  C 0.0911458333333333 17.0678168402778  0.1640625 16.5237630208333  0.2734375 15.9397786458333  C 0.3828125 15.3557942708333  0.520833333333333 14.8142361111111  0.6875 14.3151041666667  C 0.854166666666667 13.8159722222222  1.078125 13.3293185763889  1.359375 12.8551432291667  C 1.640625 12.3809678819444  1.96354166666667 11.9766710069444  2.328125 11.6422526041667  C 2.69270833333333 11.3078342013889  3.13802083333333 11.0407986111111  3.6640625 10.8411458333333  C 4.19010416666667 10.6414930555556  4.77083333333333 10.5416666666667  5.40625 10.5416666666667  C 5.5 10.5416666666667  5.71875 10.6489800347222  6.0625 10.8636067708333  C 6.40625 11.0782335069444  6.79427083333333 11.3178168402778  7.2265625 11.5823567708333  C 7.65885416666667 11.8468967013889  8.22135416666667 12.0864800347222  8.9140625 12.3011067708333  C 9.60677083333333 12.5157335069444  10.3020833333333 12.623046875  11 12.623046875  C 11.6979166666667 12.623046875  12.3932291666667 12.5157335069444  13.0859375 12.3011067708333  C 13.7786458333333 12.0864800347222  14.3411458333333 11.8468967013889  14.7734375 11.5823567708333  C 15.2057291666667 11.3178168402778  15.59375 11.0782335069444  15.9375 10.8636067708333  C 16.28125 10.6489800347222  16.5 10.5416666666667  16.59375 10.5416666666667  C 17.2291666666667 10.5416666666667  17.8098958333333 10.6414930555556  18.3359375 10.8411458333333  C 18.8619791666667 11.0407986111111  19.3072916666667 11.3078342013889  19.671875 11.6422526041667  C 20.0364583333333 11.9766710069444  20.359375 12.3809678819444  20.640625 12.8551432291667  C 20.921875 13.3293185763889  21.1458333333333 13.8159722222222  21.3125 14.3151041666667  C 21.4791666666667 14.8142361111111  21.6171875 15.3557942708333  21.7265625 15.9397786458333  C 21.8359375 16.5237630208333  21.9088541666667 17.0678168402778  21.9453125 17.5719401041667  Z M 15.2421875 1.6845703125  C 16.4140625 2.8076171875  17 4.16276041666667  17 5.75  C 17 7.33723958333333  16.4140625 8.6923828125  15.2421875 9.8154296875  C 14.0703125 10.9384765625  12.65625 11.5  11 11.5  C 9.34375 11.5  7.9296875 10.9384765625  6.7578125 9.8154296875  C 5.5859375 8.6923828125  5 7.33723958333333  5 5.75  C 5 4.16276041666667  5.5859375 2.8076171875  6.7578125 1.6845703125  C 7.9296875 0.5615234375  9.34375 0  11 0  C 12.65625 0  14.0703125 0.5615234375  15.2421875 1.6845703125  Z " fill-rule="nonzero" fill="#a51727" stroke="none" transform="matrix(1 0 0 1 1547 17 )" />
  </g>
</svg>